<?xml version="1.0" encoding="iso-8859-1"?>
<!-- Generator: Adobe Illustrator 19.0.0, SVG Export Plug-In . SVG Version: 6.00 Build 0)  -->
<svg version="1.1" id="Layer_1" xmlns="http://www.w3.org/2000/svg" xmlns:xlink="http://www.w3.org/1999/xlink" x="0px" y="0px"
	 viewBox="0 0 512 512" style="enable-background:new 0 0 512 512;" xml:space="preserve">
<path style="fill:#F0A037;" d="M511.999,255.406c0.144,64.931-23.883,124.266-63.632,169.489
	c-8.583,9.771-17.909,18.886-27.869,27.247c-42.414,35.63-96.564,57.736-155.832,59.713c-2.676,0.089-5.374,0.133-8.072,0.144
	c-2.842,0.011-5.663-0.033-8.483-0.122c-59.157-1.788-113.296-23.661-155.788-59.046c-9.971-8.294-19.308-17.343-27.913-27.047
	c-39.949-45.045-64.265-104.269-64.409-169.2C-0.321,115.195,114.03,0.323,255.417,0.001
	C396.793-0.321,511.677,114.019,511.999,255.406z"/>
<path style="fill:#F2F2F2;" d="M420.504,452.14c-41.381,34.764-93.943,56.659-151.524,59.524c-1.432,0.078-2.865,0.144-4.308,0.189
	c-2.676,0.089-5.374,0.133-8.072,0.144c-2.842,0.011-5.663-0.033-8.483-0.122c-1.432-0.044-2.854-0.1-4.286-0.167
	c-44.979-2.099-86.948-15.822-122.934-38.25c-10.004-6.218-19.553-13.124-28.568-20.63c29.878-30.822,68.373-53.273,111.608-63.477
	c8.616-2.032,17.41-3.575,26.37-4.597c5.874-0.688,11.803-1.133,17.809-1.355c2.687-0.111,5.385-0.155,8.105-0.167
	c2.831-0.011,5.651,0.033,8.449,0.144C325.661,385.444,380.633,411.37,420.504,452.14z"/>
<path style="fill:#E6E6E6;" d="M230.302,384.757l-11.947,14.645c0,0-63.077,25.726-97.463,74.058
	c-10.004-6.218-19.553-13.124-28.568-20.63c29.878-30.822,68.373-53.273,111.608-63.477
	C212.548,387.322,221.342,385.778,230.302,384.757z"/>
<g>
	<path style="fill:#B3B3B3;" d="M256.411,391.674L256.411,391.674L256.411,391.674c0,39.245,31.815,71.06,71.06,71.06l0,0l0,0
		C327.471,423.489,295.656,391.674,256.411,391.674z"/>
	<path style="fill:#B3B3B3;" d="M256.411,391.674L256.411,391.674L256.411,391.674c0,39.245-31.815,71.06-71.06,71.06l0,0l0,0
		C185.351,423.489,217.166,391.674,256.411,391.674z"/>
</g>
<g>
	<path style="fill:#EFC881;" d="M187.236,242.861c0-17.945-16.76-32.492-37.435-32.492s-37.435,14.547-37.435,32.492
		s16.76,45.1,37.435,45.1S187.236,260.806,187.236,242.861z"/>
	<path style="fill:#EFC881;" d="M399.639,242.861c0-17.945-16.76-32.492-37.435-32.492c-20.675,0-37.435,14.547-37.435,32.492
		s16.76,45.1,37.435,45.1C382.879,287.961,399.639,260.806,399.639,242.861z"/>
</g>
<g>
	<path style="fill:#E0B775;" d="M385.074,248.223c0-10.589-6.462-19.174-14.434-19.174s-14.434,8.584-14.434,19.174
		s6.462,11.957,14.434,11.957S385.074,258.812,385.074,248.223z"/>
	<path style="fill:#E0B775;" d="M155.794,248.223c0-10.589-6.462-19.174-14.434-19.174c-7.972,0-14.434,8.584-14.434,19.174
		s6.462,11.957,14.434,11.957C149.332,260.18,155.794,258.812,155.794,248.223z"/>
</g>
<path style="fill:#F9D387;" d="M371.345,211.959V278.7c0,12.602-1.654,24.793-4.741,36.296c-1.133,4.23-2.443,8.35-3.964,12.369
	c-12.524,33.676-37.706,60.101-68.995,72.037c-0.733,0.289-1.466,0.566-2.198,0.822c-11.17,4.008-23.083,6.151-35.441,6.151
	c-12.369,0-24.282-2.143-35.441-6.151c-0.744-0.255-1.477-0.533-2.21-0.822c-23.239-8.86-43.091-25.715-56.915-47.61
	c-4.797-7.583-8.86-15.766-12.08-24.427c-1.521-4.019-2.831-8.139-3.953-12.369c-3.098-11.503-4.752-23.694-4.752-36.296v-66.741
	c0-40.215,16.799-76.079,43.047-99.473c19.775-17.643,44.923-28.202,72.303-28.202c31.844,0,60.678,14.29,81.552,37.406
	C358.432,144.785,371.345,176.707,371.345,211.959z"/>
<g>
	<path style="fill:#EFC881;" d="M161.097,309.145l-0.155-1.189c-1.619-12.394-8.703-23.084-18.896-28.517l-1.389-0.741
		c0,12.608,1.651,24.795,4.744,36.301c1.127,4.223,2.438,8.343,3.958,12.361c12.531,33.675,37.709,60.11,68.997,72.036
		c-6.144-27.8-20.859-50.567-39.985-62.658C169.108,330.881,162.624,320.835,161.097,309.145z"/>
	<path style="fill:#EFC881;" d="M351.062,307.957l-0.155,1.189c-1.527,11.689-8.011,21.737-17.276,27.595
		c-19.125,12.091-33.84,34.858-39.985,62.658c31.287-11.926,56.466-38.361,68.997-72.036c1.52-4.019,2.831-8.14,3.958-12.361
		c3.093-11.505,4.744-23.693,4.744-36.301l-1.389,0.741C359.764,284.872,352.68,295.562,351.062,307.957z"/>
</g>
<path style="fill:#FFFFFF;" d="M386.351,77.777c0,13.735-6.018,26.059-15.578,34.475v72.614l-0.133-0.033
	c-67.263-18.32-137.801-20.208-205.741-5.685c-7.872,1.688-15.722,3.586-23.516,5.718v-72.481
	c-9.649-8.427-15.733-20.807-15.733-34.608c0-25.371,20.563-45.934,45.922-45.934c11.103,0,21.262,3.931,29.201,10.47
	c8.738-21.951,30.156-37.484,55.238-37.484c25.06,0,46.489,15.533,55.216,37.484c7.939-6.54,18.109-10.47,29.212-10.47
	C365.799,31.843,386.351,52.406,386.351,77.777z"/>
<g>
	<circle style="fill:#B3B3B3;" cx="256.415" cy="467.829" r="12.583"/>
	<path style="fill:#B3B3B3;" d="M268.98,511.664c-1.432,0.078-2.865,0.144-4.308,0.189c-2.676,0.089-5.374,0.133-8.072,0.144
		c-2.842,0.011-5.663-0.033-8.483-0.122c-1.432-0.044-2.854-0.1-4.286-0.167c0.155-6.817,5.729-12.291,12.58-12.291
		C263.25,499.417,268.813,504.869,268.98,511.664z"/>
</g>
<g>
	<path style="fill:#F2F2F2;" d="M164.899,113.64v65.508c-7.872,1.688-15.722,3.586-23.516,5.718v-72.481
		c-9.649-8.427-15.733-20.807-15.733-34.608c0-25.371,20.563-45.934,45.922-45.934c-18.376,4.808-30.189,20.73-30.189,42.936
		S164.899,113.64,164.899,113.64z"/>
	<path style="fill:#F2F2F2;" d="M256.011,4.829c-30.545,11.103-43.857,48.865-43.857,48.865l-11.381-11.381
		C209.511,20.363,230.929,4.829,256.011,4.829z"/>
</g>
<g>
	<path style="fill:#4D4D4D;" d="M320.205,245.043v22.512c0,4.213-3.408,7.62-7.62,7.62c-4.063,0-7.381-3.179-7.6-7.193
		c-0.01-0.139-0.01-0.289-0.01-0.427v-22.512c0-4.213,3.408-7.62,7.61-7.62c2.106,0,4.014,0.854,5.384,2.225
		c0.984,0.984,1.699,2.235,2.026,3.626C320.135,243.841,320.205,244.437,320.205,245.043z"/>
	<path style="fill:#4D4D4D;" d="M199.41,275.174L199.41,275.174c-4.206,0-7.617-3.41-7.617-7.617v-22.518
		c0-4.206,3.41-7.617,7.617-7.617l0,0c4.206,0,7.617,3.41,7.617,7.617v22.518C207.026,271.764,203.617,275.174,199.41,275.174z"/>
</g>
<g>
	<path style="fill:#68635B;" d="M331.096,217.437c0-10.22-8.285-18.506-18.506-18.506s-18.506,8.285-18.506,18.506l0,0
		C304.305,207.217,320.876,207.217,331.096,217.437L331.096,217.437z"/>
	<path style="fill:#68635B;" d="M217.915,217.437c0-10.22-8.285-18.506-18.506-18.506c-10.22,0-18.506,8.285-18.506,18.506l0,0
		C191.125,207.217,207.695,207.217,217.915,217.437L217.915,217.437z"/>
</g>
<g>
	<path style="fill:#666666;" d="M320.2,245.043v22.512c0,4.213-3.408,7.62-7.62,7.62c-4.063,0-7.381-3.179-7.6-7.193
		c8.524-8.763,12.845-18.11,15.01-24.707C320.131,243.841,320.2,244.437,320.2,245.043z"/>
	<path style="fill:#666666;" d="M207.02,245.043v22.512c0,4.213-3.408,7.62-7.62,7.62c-4.063,0-7.381-3.179-7.6-7.193
		c8.524-8.763,12.845-18.11,15.01-24.707C206.95,243.841,207.02,244.437,207.02,245.043z"/>
</g>
<path style="fill:#E0B775;" d="M274.089,298.675c0-0.567-0.114-1.121-0.331-1.658c-2.302-5.685-3.931-11.609-3.882-17.743
	c0.006-0.685,0.008-1.383,0.008-2.095c0-34.249-6.216-54.758-13.882-54.758c-7.667,0-13.882,20.51-13.882,54.758
	c0,0.712,0.002,1.41,0.008,2.095c0.049,6.133-1.581,12.058-3.882,17.743c-0.218,0.536-0.331,1.09-0.331,1.658
	c0,2.796,2.754,5.276,7.016,6.867c2.535,7.915,6.55,9.008,11.071,9.008c4.521,0,8.537-1.093,11.071-9.008
	C271.336,303.952,274.089,301.471,274.089,298.675z"/>
<path style="fill:#4D4D4D;" d="M297.417,332.599c-0.011,0.111-0.011,0.211-0.022,0.322c-0.044,0.633-0.111,1.266-0.211,1.888
	c-0.078,0.489-0.167,0.966-0.278,1.443c-0.078,0.344-0.167,0.688-0.255,1.033c-0.366,1.321-0.855,2.609-1.466,3.864
	c-1.943,4.064-5.063,7.728-9.071,10.77c-7.572,5.729-18.254,9.304-30.112,9.304s-22.539-3.575-30.112-9.304
	c-4.008-3.042-7.128-6.706-9.071-10.77c-0.611-1.255-1.099-2.543-1.466-3.864c-0.089-0.344-0.178-0.688-0.255-1.033
	c-0.111-0.477-0.2-0.955-0.278-1.443c-0.1-0.622-0.167-1.255-0.211-1.888c-0.011-0.111-0.011-0.211-0.022-0.322
	c1.454,0.289,2.931,0.566,4.441,0.822c11.159,1.932,23.705,3.009,36.973,3.009s25.815-1.077,36.973-3.009
	C294.486,333.165,295.962,332.887,297.417,332.599z"/>
<path style="fill:#F2F2F2;" d="M297.417,332.599c-0.011,0.111-0.011,0.211-0.022,0.322c-0.044,0.633-0.111,1.266-0.211,1.888
	c-0.078,0.489-0.167,0.966-0.278,1.443c-0.078,0.344-0.167,0.688-0.255,1.033c-0.366,1.321-0.855,2.609-1.466,3.864
	c-3.997,0.622-8.161,1.155-12.458,1.577c-8.449,0.844-17.421,1.288-26.725,1.288s-18.276-0.444-26.725-1.288
	c-4.297-0.422-8.461-0.955-12.458-1.577c-0.611-1.255-1.099-2.543-1.466-3.864c-0.089-0.344-0.178-0.688-0.255-1.033
	c-0.111-0.477-0.2-0.955-0.278-1.443c-0.1-0.622-0.167-1.255-0.211-1.888c-0.011-0.111-0.011-0.211-0.022-0.322
	c1.454,0.289,2.931,0.566,4.441,0.822c11.159,1.932,23.705,3.009,36.973,3.009c13.268,0,25.815-1.077,36.973-3.009
	C294.486,333.165,295.962,332.887,297.417,332.599z"/>
<path style="fill:#FFFFFF;" d="M292.976,333.42c-1.81,2.587-4.13,4.952-6.862,7.028c-1.066,0.811-2.198,1.577-3.386,2.276
	c-8.449,0.844-17.421,1.288-26.725,1.288c-9.304,0-18.276-0.444-26.725-1.288c-1.188-0.699-2.321-1.466-3.386-2.276
	c-2.731-2.076-5.052-4.441-6.862-7.028c11.159,1.932,23.705,3.009,36.973,3.009S281.817,335.352,292.976,333.42z"/>
<path style="fill:#A5795B;" d="M349.432,329.454c-4.761,3.072-10.663,6.045-17.191,8.551
	c-26.459,10.142-63.231,12.639-76.236-16.286c-13.015,28.925-49.786,26.427-76.246,16.286c-6.528-2.506-12.43-5.478-17.191-8.551
	c22.986,0,30.371-23.821,58.285-33.629c12.791-4.496,22.137-2.806,28.508,0.341c2.78,1.373,5.034,3.281,6.664,5.512
	c1.757-2.382,4.215-4.412,7.259-5.82c6.351-2.948,15.493-4.379,27.874-0.033C319.06,305.633,326.456,329.454,349.432,329.454z"/>
<path style="fill:#EFC881;" d="M277.766,370.074c0-4.541-9.743,0.484-21.763,0.484c-12.02,0-21.763-5.024-21.763-0.484
	c0,4.54,9.743,8.222,21.763,8.222C268.021,378.295,277.766,374.614,277.766,370.074z"/>
<g>
</g>
<g>
</g>
<g>
</g>
<g>
</g>
<g>
</g>
<g>
</g>
<g>
</g>
<g>
</g>
<g>
</g>
<g>
</g>
<g>
</g>
<g>
</g>
<g>
</g>
<g>
</g>
<g>
</g>
</svg>
